<svg width="39" height="40" viewBox="0 0 39 40" fill="none" xmlns="http://www.w3.org/2000/svg">
<path fill-rule="evenodd" clip-rule="evenodd" d="M0.905315 0C0.405323 0 0 0.407013 0 0.90909V39.0909C0 39.593 0.405324 40 0.905317 40H38.0233C38.5232 40 38.9286 39.593 38.9286 39.0909V0.909091C38.9286 0.407014 38.5232 0 38.0233 0H0.905315ZM36.2252 3.61953H2.70337V21.8981H36.2252V3.61953ZM10.3629 30.0421C12.1048 30.0421 13.5169 28.6241 13.5169 26.875C13.5169 25.1259 12.1048 23.7079 10.3629 23.7079C8.62106 23.7079 7.20899 25.1259 7.20899 26.875C7.20899 28.6241 8.62106 30.0421 10.3629 30.0421ZM19.4643 30.0421C21.2559 30.0421 22.7083 28.6241 22.7083 26.875C22.7083 25.1259 21.2559 23.7079 19.4643 23.7079C17.6726 23.7079 16.2202 25.1259 16.2202 26.875C16.2202 28.6241 17.6726 30.0421 19.4643 30.0421ZM31.7196 26.875C31.7196 28.6241 30.3075 30.0421 28.5656 30.0421C26.8238 30.0421 25.4117 28.6241 25.4117 26.875C25.4117 25.1259 26.8238 23.7079 28.5656 23.7079C30.3075 23.7079 31.7196 25.1259 31.7196 26.875ZM27.9613 35.4714C27.5901 36.5257 26.5888 37.2811 25.4117 37.2811C24.2346 37.2811 23.2333 36.5257 22.8622 35.4714H3.6045C3.10682 35.4714 2.70337 35.0663 2.70337 34.5665C2.70337 34.0667 3.10682 33.6616 3.6045 33.6616H22.8622C23.2333 32.6073 24.2346 31.8519 25.4117 31.8519C26.5888 31.8519 27.5901 32.6073 27.9613 33.6616H35.3241C35.8218 33.6616 36.2252 34.0667 36.2252 34.5665C36.2252 35.0663 35.8218 35.4714 35.3241 35.4714H27.9613Z" fill="#005BAA"/>
<path d="M25.4117 12.2159L14.418 18.0976V6.33418L25.4117 12.2159Z" fill="#005BAA"/>
<path d="M28.9097 26.9972L26.8535 28.1148V25.8796L28.9097 26.9972Z" fill="#005BAA"/>
<path d="M30.966 26.9972L28.9097 28.1148V25.8796L30.966 26.9972Z" fill="#005BAA"/>
<path d="M19.538 26.9972L17.4818 28.1148V25.8796L19.538 26.9972Z" fill="#005BAA"/>
<path d="M10.3466 26.9972L12.4028 25.8796V28.1148L10.3466 26.9972Z" fill="#005BAA"/>
<path d="M8.29034 26.9972L10.3466 25.8796V28.1148L8.29034 26.9972Z" fill="#005BAA"/>
<path d="M19.4643 25.8796H20.005V28.0513H19.4643V25.8796Z" fill="#005BAA"/>
<path d="M20.5456 25.8796H21.0863V28.0513H20.5456V25.8796Z" fill="#005BAA"/>
</svg>
