<svg width="48" height="40" viewBox="0 0 48 40" fill="none" xmlns="http://www.w3.org/2000/svg">
<path d="M35.4931 18.5387H33.7595V20.3109H35.4931V18.5387Z" fill="#005BAA"/>
<path d="M41.8146 18.3066C41.5846 18.3066 41.3598 18.3747 41.1686 18.5022C40.9773 18.6297 40.8283 18.8109 40.7403 19.0229C40.6523 19.2349 40.6292 19.4682 40.6741 19.6933C40.719 19.9184 40.8297 20.1252 40.9924 20.2875C41.155 20.4497 41.3622 20.5602 41.5877 20.605C41.8133 20.6498 42.0471 20.6268 42.2596 20.539C42.472 20.4512 42.6537 20.3024 42.7814 20.1116C42.9092 19.9208 42.9774 19.6965 42.9774 19.467C42.9774 19.1592 42.8549 18.8641 42.6368 18.6465C42.4187 18.4289 42.123 18.3066 41.8146 18.3066ZM41.8146 20.4163C41.6264 20.4163 41.4425 20.3607 41.286 20.2563C41.1296 20.152 41.0076 20.0037 40.9356 19.8303C40.8636 19.6568 40.8448 19.4659 40.8815 19.2817C40.9182 19.0976 41.0088 18.9284 41.1418 18.7956C41.2749 18.6629 41.4444 18.5725 41.629 18.5358C41.8135 18.4992 42.0048 18.518 42.1787 18.5898C42.3525 18.6617 42.5011 18.7834 42.6056 18.9395C42.7102 19.0956 42.766 19.2792 42.766 19.467C42.7659 19.7187 42.6656 19.9601 42.4872 20.1382C42.3088 20.3162 42.0669 20.4162 41.8146 20.4163Z" fill="#005BAA"/>
<path d="M37.1422 16.4074H39.3832L38.2416 14.5931L37.1422 16.4074Z" fill="#005BAA"/>
<path d="M39.1854 22.1117L38.3473 22.9476L37.5096 22.1117L37.3617 22.2594L38.1993 23.0953L37.3617 23.9316L37.5096 24.0793L38.3473 23.243L39.1854 24.0793L39.3334 23.9316L38.4953 23.0953L39.3334 22.2594L39.1854 22.1117Z" fill="#005BAA"/>
<path d="M47.7556 30.7963C47.6287 27.9692 45.5145 19.4881 44.3728 16.3657C43.2311 13.2432 41.878 11.8508 41.878 11.8508C41.878 11.8508 41.0746 11.3023 38.5799 11.1335C36.0851 10.9647 35.2394 12.0618 35.2394 12.0618H12.575C11.6025 10.7116 8.09289 11.0913 6.35923 11.7242C4.62558 12.3572 2.72278 18.3488 2.72278 18.3488C2.72278 18.3488 0.312578 27.3785 0.0165875 33.2436C-0.279403 39.1086 3.4839 39.7837 3.4839 39.7837C8.07175 41.1551 10.6934 33.771 11.4968 30.9439C12.3002 28.1169 14.9641 29.214 14.9641 29.214C17.7126 31.4081 19.6154 29.214 19.6154 29.214L28.0722 29.3405C30.3556 31.0705 31.8778 29.6781 31.8778 29.6781C34.5417 27.8637 36.1485 30.1844 36.1485 30.1844C36.1485 30.1844 36.8251 31.7878 38.3896 36.0495C39.9541 40.3112 43.4003 39.9947 43.4003 39.9947C48.3475 39.4462 47.8824 33.6233 47.7556 30.7963ZM16.7612 12.104H31.1801V18.4332C31.1801 18.657 31.091 18.8717 30.9324 19.0299C30.7738 19.1882 30.5587 19.2771 30.3344 19.2771H17.6069C17.3826 19.2771 17.1675 19.1882 17.0089 19.0299C16.8503 18.8717 16.7612 18.657 16.7612 18.4332V12.104ZM8.68487 16.3235C8.68487 15.7749 9.33393 15.8171 9.33393 15.8171H11.142C11.6071 15.8171 11.5589 16.2391 11.5589 16.2391V18.0956L10.0756 19.2771L8.68487 18.2222V16.3235ZM6.42393 21.429C5.87423 21.429 5.91652 20.7721 5.91652 20.7721V18.9412C5.91652 18.4716 6.33936 18.5193 6.33936 18.5193H8.19987L9.38383 20.0206L8.32672 21.4286L6.42393 21.429ZM11.5602 23.7075C11.5602 24.2561 10.9111 24.2139 10.9111 24.2139H9.10348C8.63836 24.2139 8.68614 23.7919 8.68614 23.7919V21.9354L10.1695 20.7539L11.5602 21.8088V23.7075ZM14.2457 19.1973V20.9746C14.2457 21.4303 13.8228 21.3847 13.8228 21.3847H11.9623L10.7784 19.9265L11.8355 18.5598H13.7383C14.288 18.5598 14.2457 19.1973 14.2457 19.1973ZM17.2056 29.8258C16.6662 29.8258 16.1389 29.6662 15.6903 29.3671C15.2418 29.0681 14.8923 28.643 14.6858 28.1457C14.4794 27.6484 14.4254 27.1012 14.5306 26.5733C14.6359 26.0453 14.8956 25.5604 15.2771 25.1798C15.6585 24.7992 16.1444 24.54 16.6735 24.4349C17.2026 24.3299 17.7509 24.3838 18.2493 24.5898C18.7476 24.7958 19.1736 25.1446 19.4733 25.5922C19.773 26.0398 19.9329 26.5659 19.9329 27.1042C19.9329 27.4617 19.8624 27.8156 19.7253 28.1458C19.5882 28.476 19.3872 28.7761 19.1339 29.0288C18.8806 29.2815 18.5799 29.482 18.249 29.6187C17.918 29.7555 17.5638 29.8258 17.2056 29.8258ZM30.3137 29.8258C29.7743 29.8258 29.247 29.6662 28.7985 29.3671C28.35 29.0681 28.0004 28.643 27.794 28.1457C27.5876 27.6484 27.5335 27.1012 27.6388 26.5733C27.744 26.0453 28.0038 25.5604 28.3852 25.1798C28.7666 24.7992 29.2526 24.54 29.7816 24.4349C30.3107 24.3299 30.8591 24.3838 31.3574 24.5898C31.8558 24.7958 32.2817 25.1446 32.5814 25.5922C32.8811 26.0398 33.041 26.5659 33.041 27.1042C33.041 27.4617 32.9705 27.8156 32.8334 28.1458C32.6963 28.476 32.4954 28.7761 32.2421 29.0288C31.9888 29.2815 31.6881 29.482 31.3571 29.6187C31.0262 29.7555 30.6719 29.8258 30.3137 29.8258ZM34.6267 21.2602C34.2713 21.2602 33.9238 21.1551 33.6283 20.958C33.3328 20.761 33.1024 20.4809 32.9664 20.1532C32.8304 19.8255 32.7948 19.465 32.8642 19.1171C32.9335 18.7693 33.1046 18.4497 33.356 18.1989C33.6073 17.9481 33.9275 17.7773 34.2761 17.7081C34.6247 17.639 34.986 17.6745 35.3144 17.8102C35.6428 17.9459 35.9235 18.1758 36.1209 18.4707C36.3184 18.7656 36.4238 19.1123 36.4238 19.467C36.4238 19.7025 36.3773 19.9357 36.287 20.1533C36.1966 20.3709 36.0642 20.5686 35.8973 20.7352C35.7304 20.9017 35.5322 21.0338 35.3141 21.1239C35.096 21.214 34.8627 21.2603 34.6267 21.2602ZM38.2632 14.0449C38.6186 14.0449 38.966 14.1501 39.2616 14.3472C39.5571 14.5442 39.7874 14.8243 39.9234 15.152C40.0595 15.4796 40.095 15.8402 40.0257 16.1881C39.9564 16.5359 39.7852 16.8555 39.5339 17.1063C39.2826 17.3571 38.9623 17.5278 38.6137 17.597C38.2651 17.6662 37.9038 17.6307 37.5754 17.495C37.2471 17.3593 36.9664 17.1294 36.7689 16.8345C36.5715 16.5396 36.4661 16.1929 36.4661 15.8382C36.4661 15.3627 36.6553 14.9066 36.9923 14.5703C37.3292 14.234 37.7866 14.0451 38.2632 14.0449ZM38.3477 24.9312C37.9923 24.9312 37.6448 24.826 37.3493 24.629C37.0538 24.4319 36.8235 24.1518 36.6874 23.8242C36.5514 23.4965 36.5158 23.1359 36.5852 22.7881C36.6545 22.4402 36.8257 22.1207 37.077 21.8699C37.3283 21.6191 37.6485 21.4483 37.9971 21.3791C38.3457 21.3099 38.7071 21.3454 39.0354 21.4811C39.3638 21.6169 39.6445 21.8467 39.8419 22.1416C40.0394 22.4365 40.1448 22.7832 40.1448 23.1379C40.1448 23.3734 40.0983 23.6067 40.008 23.8243C39.9176 24.0419 39.7852 24.2396 39.6183 24.4061C39.4514 24.5726 39.2532 24.7047 39.0351 24.7948C38.8171 24.8849 38.5838 24.9312 38.3477 24.9312ZM41.815 21.3024C41.4596 21.3024 41.1122 21.1973 40.8166 21.0002C40.5211 20.8032 40.2908 20.5231 40.1547 20.1954C40.0187 19.8677 39.9831 19.5072 40.0525 19.1593C40.1218 18.8114 40.293 18.4919 40.5443 18.2411C40.7956 17.9903 41.1158 17.8195 41.4644 17.7503C41.813 17.6811 42.1744 17.7167 42.5028 17.8524C42.8311 17.9881 43.1118 18.218 43.3093 18.5129C43.5067 18.8078 43.6121 19.1545 43.6121 19.5092C43.6121 19.7447 43.5656 19.9779 43.4753 20.1955C43.3849 20.4131 43.2525 20.6108 43.0856 20.7773C42.9187 20.9439 42.7205 21.076 42.5025 21.1661C42.2844 21.2561 42.0511 21.3025 41.815 21.3024Z" fill="#005BAA"/>
<path d="M23.4844 8.51744C24.1149 8.51744 24.6261 8.00738 24.6261 7.37818C24.6261 6.74899 24.1149 6.23892 23.4844 6.23892C22.8538 6.23892 22.3427 6.74899 22.3427 7.37818C22.3427 8.00738 22.8538 8.51744 23.4844 8.51744Z" fill="#005BAA"/>
<path d="M23.4844 4.15028C25.8946 4.15028 27.8709 5.97605 28.0934 8.30984C28.1073 8.16638 28.1145 8.02081 28.1145 7.87397C28.1145 5.35114 26.0426 3.30639 23.4844 3.30639C20.9262 3.30639 18.8542 5.35114 18.8542 7.87397C18.8542 8.02081 18.8618 8.16638 18.8754 8.30984C19.0982 5.97605 21.0767 4.15028 23.4844 4.15028Z" fill="#005BAA"/>
<path d="M23.4421 1.33209C27.2477 1.33209 30.3721 4.21694 30.7239 7.90434C30.7459 7.67733 30.757 7.44765 30.7573 7.2153C30.7573 3.22959 27.4824 0 23.4421 0C19.4018 0 16.1269 3.23085 16.1269 7.2153C16.1269 7.44779 16.1387 7.67733 16.1603 7.90434C16.5121 4.21821 19.6378 1.33209 23.4421 1.33209Z" fill="#005BAA"/>
</svg>
