<svg width="43" height="40" viewBox="0 0 43 40" fill="none" xmlns="http://www.w3.org/2000/svg">
<path fill-rule="evenodd" clip-rule="evenodd" d="M0 1.94895C0 0.872576 0.872579 0 1.94896 0H40.3712C41.4476 0 42.3202 0.872578 42.3202 1.94896V31.9258C42.3202 33.0021 41.4476 33.8747 40.3712 33.8747H26.3615C26.4332 35.4615 27.4076 37.2891 28.7703 37.851V37.8664C29.3382 37.8907 29.7912 38.3588 29.7912 38.9327C29.7912 39.5066 29.3382 39.9747 28.7703 39.999L13.4571 40C12.8892 39.9757 12.4362 39.5066 12.4362 38.9327C12.4362 38.3588 12.8892 37.8907 13.4571 37.8664V37.851C14.8198 37.2891 15.7942 35.4615 15.8658 33.8747H1.94896C0.872579 33.8747 0 33.0021 0 31.9258V1.94895ZM39.1647 3.24826H3.15545V25.4292H39.1647V3.24826Z" fill="#005BAA"/>
</svg>
