<svg width="53" height="40" viewBox="0 0 53 40" fill="none" xmlns="http://www.w3.org/2000/svg">
<path d="M46.049 15.4773C46.7205 16.149 47.6314 16.5265 48.5811 16.5267H48.6268C49.3304 16.5252 50.0179 16.3159 50.603 15.9249C51.188 15.534 51.6445 14.9788 51.915 14.3293C52.1856 13.6797 52.2581 12.9647 52.1236 12.274C51.9891 11.5834 51.6534 10.9479 51.1589 10.4473C47.8723 7.13674 43.963 4.5092 39.6564 2.71616C35.3498 0.92311 30.731 0 26.0661 0C21.4011 0 16.7823 0.92311 12.4757 2.71616C8.16906 4.5092 4.25985 7.13674 0.973262 10.4473C0.334424 11.1245 -0.0146512 12.0244 0.000471632 12.9552C0.0155944 13.886 0.39371 14.7741 1.05421 15.4302C1.71471 16.0862 2.60534 16.4583 3.53623 16.4671C4.46712 16.4759 5.36465 16.1207 6.03745 15.4773C8.6581 12.8385 11.7749 10.7442 15.2084 9.31502C18.6419 7.88586 22.3242 7.15011 26.0432 7.15011C29.7623 7.15011 33.4446 7.88586 36.8781 9.31502C40.3116 10.7442 43.4284 12.8385 46.049 15.4773Z" fill="#005BAA"/>
<path d="M40.2363 23.2098C40.6688 23.3899 41.1327 23.4828 41.6013 23.4831C42.3073 23.4839 42.9976 23.2754 43.5851 22.8839C44.1726 22.4923 44.6308 21.9355 44.9018 21.2836C45.1728 20.6317 45.2444 19.9141 45.1077 19.2215C44.9709 18.5289 44.6318 17.8923 44.1334 17.3924C41.7631 15.0074 38.9446 13.1146 35.8401 11.823C32.7355 10.5314 29.4062 9.86648 26.0437 9.86648C22.6812 9.86648 19.3519 10.5314 16.2474 11.823C13.1428 13.1146 10.3244 15.0074 7.95411 17.3924C7.60885 17.721 7.33288 18.1154 7.14246 18.5523C6.95204 18.9892 6.85104 19.4598 6.84541 19.9364C6.83977 20.4129 6.92962 20.8858 7.10965 21.3271C7.28968 21.7684 7.55625 22.1692 7.89365 22.5058C8.23104 22.8424 8.63242 23.1081 9.07412 23.2871C9.51582 23.4662 9.9889 23.5549 10.4655 23.5482C10.942 23.5415 11.4124 23.4395 11.8489 23.2481C12.2854 23.0567 12.6791 22.7798 13.0069 22.4338C14.714 20.713 16.7448 19.3471 18.9824 18.4151C21.2199 17.483 23.6198 17.0031 26.0437 17.0031C28.4676 17.0031 30.8676 17.483 33.1051 18.4151C35.3426 19.3471 37.3735 20.713 39.0806 22.4338C39.411 22.766 39.8037 23.0298 40.2363 23.2098Z" fill="#005BAA"/>
<path d="M34.4953 30.5662C34.0249 30.5667 33.5591 30.4743 33.1246 30.2942C32.69 30.1142 32.2953 29.85 31.9632 29.5169C31.1897 28.7327 30.2681 28.11 29.2519 27.685C28.2356 27.26 27.1451 27.0411 26.0436 27.0411C24.9421 27.0411 23.8516 27.26 22.8354 27.685C21.8191 28.11 20.8975 28.7327 20.124 29.5169C19.8008 29.8787 19.4074 30.1708 18.9676 30.3754C18.5278 30.5801 18.0509 30.693 17.566 30.7072C17.0812 30.7214 16.5985 30.6367 16.1475 30.4581C15.6964 30.2796 15.2865 30.011 14.9427 29.6688C14.5989 29.3266 14.3285 28.9179 14.1479 28.4677C13.9674 28.0174 13.8804 27.5351 13.8925 27.0502C13.9045 26.5653 14.0152 26.0879 14.2179 25.6472C14.4205 25.2065 14.7109 24.8117 15.0712 24.4869C16.5072 23.0371 18.2162 21.8863 20.0995 21.1009C21.9828 20.3155 24.0031 19.9112 26.0436 19.9112C28.0841 19.9112 30.1044 20.3155 31.9877 21.1009C33.8711 21.8863 35.5801 23.0371 37.016 24.4869C37.5099 24.9867 37.8453 25.6212 37.9802 26.3108C38.1152 27.0004 38.0436 27.7145 37.7744 28.3636C37.5053 29.0127 37.0506 29.5679 36.4673 29.9598C35.884 30.3516 35.198 30.5625 34.4953 30.5662Z" fill="#005BAA"/>
<path d="M30.6403 35.4034C30.6403 37.942 28.5823 39.9999 26.0437 39.9999C23.5051 39.9999 21.4472 37.942 21.4472 35.4034C21.4472 32.8648 23.5051 30.8068 26.0437 30.8068C28.5823 30.8068 30.6403 32.8648 30.6403 35.4034Z" fill="#005BAA"/>
</svg>
